<svg width="163" height="50" viewBox="0 0 163 50" fill="none" xmlns="http://www.w3.org/2000/svg">
<g opacity="0.4">
<path d="M81.5 0.661865C103.953 0.661865 124.261 3.43454 138.939 7.90503C146.281 10.1412 152.186 12.794 156.245 15.7166C160.315 18.6475 162.437 21.7791 162.438 24.9646C162.438 28.1503 160.316 31.2826 156.245 34.2136C152.186 37.1361 146.281 39.789 138.939 42.0251C124.261 46.4956 103.953 49.2683 81.5 49.2683C59.0469 49.2683 38.7387 46.4956 24.0605 42.0251C16.7185 39.789 10.8136 37.1361 6.75488 34.2136C2.68443 31.2826 0.5625 28.1503 0.5625 24.9646C0.562684 21.7791 2.6846 18.6475 6.75488 15.7166C10.8136 12.794 16.7185 10.1412 24.0605 7.90503C38.7387 3.43454 59.0469 0.661865 81.5 0.661865Z" stroke="url(#paint0_linear_0_69)"/>
<path d="M81.4998 7.79907C97.5629 7.79907 112.086 9.7724 122.577 12.9514C127.826 14.5419 132.037 16.4264 134.925 18.4954C137.824 20.573 139.297 22.7661 139.297 24.9651C139.297 27.1641 137.824 29.3572 134.925 31.4348C132.037 33.5038 127.826 35.3873 122.577 36.9778C112.086 40.1568 97.5631 42.1311 81.4998 42.1311C65.4366 42.1311 50.9135 40.1568 40.4227 36.9778C35.1742 35.3873 30.9628 33.5037 28.075 31.4348C25.1754 29.3573 23.703 27.164 23.703 24.9651C23.703 22.7661 25.1754 20.5729 28.075 18.4954C30.9628 16.4264 35.1741 14.5419 40.4227 12.9514C50.9135 9.77236 65.4367 7.79909 81.4998 7.79907Z" stroke="url(#paint1_linear_0_69)"/>
<path d="M81.4996 18.4756C87.8335 18.4756 93.5486 19.254 97.6636 20.501C99.7241 21.1254 101.356 21.8588 102.461 22.6504C103.578 23.4507 104.064 24.2399 104.064 24.9648C104.064 25.6898 103.578 26.479 102.461 27.2793C101.356 28.0709 99.7242 28.8043 97.6636 29.4287C93.5486 30.6757 87.8335 31.4541 81.4996 31.4541C75.1655 31.4541 69.4505 30.6757 65.3355 29.4287C63.2749 28.8043 61.6435 28.0709 60.5386 27.2793C59.4216 26.479 58.9351 25.6898 58.9351 24.9648C58.9352 24.2399 59.4216 23.4507 60.5386 22.6504C61.6436 21.8588 63.2749 21.1254 65.3355 20.501C69.4505 19.254 75.1655 18.4756 81.4996 18.4756Z" stroke="url(#paint2_linear_0_69)"/>
</g>
<defs>
<linearGradient id="paint0_linear_0_69" x1="-51.8921" y1="0.161875" x2="148.84" y2="162.548" gradientUnits="userSpaceOnUse">
<stop stop-color="#DF1CFF"/>
<stop offset="1" stop-color="#EA0070"/>
</linearGradient>
<linearGradient id="paint1_linear_0_69" x1="-13.9887" y1="7.29908" x2="129.13" y2="123.664" gradientUnits="userSpaceOnUse">
<stop stop-color="#DF1CFF"/>
<stop offset="1" stop-color="#EA0070"/>
</linearGradient>
<linearGradient id="paint2_linear_0_69" x1="43.7206" y1="17.9756" x2="100.344" y2="64.0142" gradientUnits="userSpaceOnUse">
<stop stop-color="#DF1CFF"/>
<stop offset="1" stop-color="#EA0070"/>
</linearGradient>
</defs>
</svg>
