<svg width="361" height="187" viewBox="0 0 361 187" fill="none" xmlns="http://www.w3.org/2000/svg">
<g filter="url(#filter0_d_0_293)">
<rect x="80" y="36.7058" width="201" height="54" rx="8" fill="white" fill-opacity="0.05"/>
<rect x="80.75" y="37.4558" width="199.5" height="52.5" rx="7.25" stroke="url(#paint0_linear_0_293)" stroke-width="1.5"/>
<path d="M131.201 60.8035C130.973 59.8204 130.417 59.1335 129.531 58.7429C129.036 58.5281 128.486 58.4207 127.881 58.4207C126.722 58.4207 125.768 58.8601 125.02 59.739C124.277 60.6114 123.906 61.9265 123.906 63.6843C123.906 65.4552 124.31 66.7084 125.117 67.4441C125.924 68.1798 126.842 68.5476 127.871 68.5476C128.88 68.5476 129.707 68.2579 130.352 67.6785C130.996 67.0925 131.393 66.3276 131.543 65.3835H128.213V62.9812H134.209V70.7058H132.217L131.914 68.9089C131.335 69.5925 130.814 70.0743 130.352 70.3542C129.557 70.8425 128.581 71.0867 127.422 71.0867C125.514 71.0867 123.952 70.4259 122.734 69.1042C121.465 67.7761 120.83 65.9597 120.83 63.655C120.83 61.3243 121.471 59.4558 122.754 58.0496C124.036 56.6433 125.732 55.9402 127.842 55.9402C129.671 55.9402 131.139 56.4057 132.246 57.3367C133.359 58.2611 133.997 59.4167 134.16 60.8035H131.201ZM141.064 62.073C140.42 62.073 139.919 62.2748 139.561 62.6785C139.209 63.0821 138.988 63.629 138.896 64.3191H143.223C143.177 63.5834 142.952 63.0268 142.549 62.6492C142.152 62.2651 141.657 62.073 141.064 62.073ZM141.064 59.7781C141.95 59.7781 142.747 59.9441 143.457 60.2761C144.167 60.6082 144.753 61.1322 145.215 61.8484C145.632 62.4799 145.902 63.2123 146.025 64.0457C146.097 64.5339 146.126 65.2371 146.113 66.155H138.828C138.867 67.2227 139.202 67.9714 139.834 68.4011C140.218 68.6681 140.68 68.8015 141.221 68.8015C141.794 68.8015 142.259 68.6388 142.617 68.3132C142.812 68.1375 142.985 67.8933 143.135 67.5808H145.977C145.905 68.2123 145.576 68.8536 144.99 69.5046C144.079 70.5398 142.803 71.0574 141.162 71.0574C139.808 71.0574 138.613 70.6212 137.578 69.7488C136.543 68.8764 136.025 67.4571 136.025 65.491C136.025 63.6485 136.491 62.2358 137.422 61.2527C138.359 60.2696 139.574 59.7781 141.064 59.7781ZM146.904 62.1414V60.1589H148.389V57.1902H151.143V60.1589H152.871V62.1414H151.143V67.7664C151.143 68.2026 151.198 68.476 151.309 68.5867C151.419 68.6908 151.758 68.7429 152.324 68.7429C152.409 68.7429 152.497 68.7429 152.588 68.7429C152.686 68.7364 152.78 68.7299 152.871 68.7234V70.8035L151.553 70.8523C150.238 70.8979 149.339 70.67 148.857 70.1687C148.545 69.8497 148.389 69.3582 148.389 68.6941V62.1414H146.904ZM163.086 58.7917H160.264V56.2234H163.086V58.7917ZM160.264 60.0613H163.086V70.7058H160.264V60.0613ZM171.689 59.8074C172.79 59.8074 173.688 60.0971 174.385 60.6765C175.088 61.2494 175.439 62.2032 175.439 63.5378V70.7058H172.588V64.2312C172.588 63.6713 172.513 63.2416 172.363 62.9421C172.09 62.3953 171.569 62.1218 170.801 62.1218C169.857 62.1218 169.209 62.5222 168.857 63.323C168.675 63.7462 168.584 64.2865 168.584 64.9441V70.7058H165.811V60.0808H168.496V61.6335C168.854 61.0867 169.193 60.6928 169.512 60.4519C170.085 60.0222 170.811 59.8074 171.689 59.8074ZM194.268 56.3113V58.8601H189.961V70.7058H186.934V58.8601H182.607V56.3113H194.268ZM199.102 68.7429C199.915 68.7429 200.54 68.4532 200.977 67.8738C201.413 67.2944 201.631 66.4708 201.631 65.4031C201.631 64.3354 201.413 63.5151 200.977 62.9421C200.54 62.3627 199.915 62.073 199.102 62.073C198.288 62.073 197.66 62.3627 197.217 62.9421C196.781 63.5151 196.562 64.3354 196.562 65.4031C196.562 66.4708 196.781 67.2944 197.217 67.8738C197.66 68.4532 198.288 68.7429 199.102 68.7429ZM204.551 65.4031C204.551 66.9656 204.102 68.3035 203.203 69.4167C202.305 70.5235 200.941 71.0769 199.111 71.0769C197.282 71.0769 195.918 70.5235 195.02 69.4167C194.121 68.3035 193.672 66.9656 193.672 65.4031C193.672 63.8666 194.121 62.5352 195.02 61.4089C195.918 60.2826 197.282 59.7195 199.111 59.7195C200.941 59.7195 202.305 60.2826 203.203 61.4089C204.102 62.5352 204.551 63.8666 204.551 65.4031ZM209.326 60.0613V66.4773C209.326 67.0828 209.398 67.5385 209.541 67.8445C209.795 68.3848 210.293 68.655 211.035 68.655C211.986 68.655 212.637 68.2709 212.988 67.5027C213.171 67.086 213.262 66.5359 213.262 65.8523V60.0613H216.084V70.7058H213.379V69.2019C213.353 69.2345 213.288 69.3321 213.184 69.4949C213.079 69.6576 212.956 69.8009 212.812 69.9246C212.376 70.3152 211.953 70.5821 211.543 70.7253C211.139 70.8686 210.664 70.9402 210.117 70.9402C208.542 70.9402 207.48 70.3738 206.934 69.241C206.628 68.616 206.475 67.6947 206.475 66.4773V60.0613H209.326ZM225.137 63.8796C225.085 63.4825 224.951 63.1244 224.736 62.8054C224.424 62.3757 223.939 62.1609 223.281 62.1609C222.344 62.1609 221.702 62.6264 221.357 63.5574C221.175 64.0522 221.084 64.7097 221.084 65.53C221.084 66.3113 221.175 66.9395 221.357 67.4148C221.689 68.3002 222.314 68.7429 223.232 68.7429C223.883 68.7429 224.346 68.5671 224.619 68.2156C224.893 67.864 225.059 67.4083 225.117 66.8484H227.959C227.894 67.6947 227.588 68.4955 227.041 69.2507C226.169 70.4682 224.876 71.0769 223.164 71.0769C221.452 71.0769 220.192 70.5691 219.385 69.5535C218.577 68.5378 218.174 67.2195 218.174 65.5984C218.174 63.769 218.62 62.3464 219.512 61.3308C220.404 60.3152 221.634 59.8074 223.203 59.8074C224.538 59.8074 225.628 60.1069 226.475 60.7058C227.327 61.3048 227.832 62.3627 227.988 63.8796H225.137ZM235.781 59.7878C236.439 59.7878 237.035 59.9018 237.568 60.1296C238.109 60.3575 238.551 60.7058 238.896 61.1746C239.189 61.5717 239.368 61.9819 239.434 62.405C239.499 62.8217 239.531 63.5053 239.531 64.4558V70.7058H236.689V64.2312C236.689 63.6583 236.592 63.196 236.396 62.8445C236.143 62.3497 235.661 62.1023 234.951 62.1023C234.215 62.1023 233.656 62.3497 233.271 62.8445C232.894 63.3328 232.705 64.0326 232.705 64.9441V70.7058H229.932V56.3601H232.705V61.448C233.109 60.8295 233.574 60.3998 234.102 60.1589C234.635 59.9115 235.195 59.7878 235.781 59.7878Z" fill="white"/>
</g>
<defs>
<filter id="filter0_d_0_293" x="0" y="-27.2942" width="361" height="214" filterUnits="userSpaceOnUse" color-interpolation-filters="sRGB">
<feFlood flood-opacity="0" result="BackgroundImageFix"/>
<feColorMatrix in="SourceAlpha" type="matrix" values="0 0 0 0 0 0 0 0 0 0 0 0 0 0 0 0 0 0 127 0" result="hardAlpha"/>
<feOffset dy="16"/>
<feGaussianBlur stdDeviation="40"/>
<feColorMatrix type="matrix" values="0 0 0 0 0.815686 0 0 0 0 0.0666667 0 0 0 0 0.8 0 0 0 0.15 0"/>
<feBlend mode="normal" in2="BackgroundImageFix" result="effect1_dropShadow_0_293"/>
<feBlend mode="normal" in="SourceGraphic" in2="effect1_dropShadow_0_293" result="shape"/>
</filter>
<linearGradient id="paint0_linear_0_293" x1="80" y1="18.2066" x2="271.057" y2="142.876" gradientUnits="userSpaceOnUse">
<stop stop-color="#E50AA7"/>
<stop offset="1" stop-color="#FF17BD" stop-opacity="0"/>
</linearGradient>
</defs>
</svg>
