<svg width="488" height="94" viewBox="0 0 488 94" fill="none" xmlns="http://www.w3.org/2000/svg">
<g filter="url(#filter0_d_0_252)">
<mask id="path-1-outside-1_0_252" maskUnits="userSpaceOnUse" x="12.6758" y="11.8472" width="455" height="62" fill="black">
<rect fill="white" x="12.6758" y="11.8472" width="455" height="62"/>
<path d="M42.4103 71.6392C34.2983 71.6392 27.6023 69.0712 22.3223 63.9352C17.0903 58.7512 14.4743 52.1992 14.4743 44.2792C14.4743 36.2632 17.1863 29.6632 22.6103 24.4792C28.0343 19.2952 34.7543 16.7032 42.7703 16.7032C46.9463 16.7032 50.9063 17.4712 54.6503 19.0072C58.3943 20.4952 61.5143 22.4872 64.0103 24.9832L56.3783 33.6232C52.5383 29.9752 47.9783 28.1512 42.6983 28.1512C38.0423 28.1512 34.2023 29.6872 31.1783 32.7592C28.1543 35.7832 26.6423 39.5752 26.6423 44.1352C26.6423 48.6472 28.1303 52.4632 31.1063 55.5832C34.0823 58.7032 37.9223 60.2632 42.6263 60.2632C45.1703 60.2632 47.6183 59.8072 49.9703 58.8952C52.3703 57.9352 54.3383 56.7112 55.8743 55.2232V49.1032H42.3383V38.8792H66.6743V61.2712C59.7623 68.1832 51.6743 71.6392 42.4103 71.6392ZM113.157 50.1832C113.157 51.3352 113.037 52.9192 112.797 54.9352H83.781C85.125 59.8792 88.701 62.3512 94.509 62.3512C98.925 62.3512 103.029 61.0792 106.821 58.5352L111.285 66.2392C106.485 69.8872 100.725 71.7112 94.005 71.7112C87.045 71.7112 81.693 69.7192 77.949 65.7352C74.253 61.7512 72.405 56.8552 72.405 51.0472C72.405 45.1432 74.325 40.2232 78.165 36.2872C81.957 32.3512 86.973 30.3832 93.213 30.3832C98.973 30.3832 103.749 32.1592 107.541 35.7112C111.285 39.2632 113.157 44.0872 113.157 50.1832ZM99.045 41.4712C97.461 40.1752 95.517 39.5272 93.213 39.5272C90.909 39.5272 88.893 40.1752 87.165 41.4712C85.485 42.7672 84.333 44.5672 83.709 46.8712H102.285C101.757 44.5672 100.677 42.7672 99.045 41.4712ZM145.559 59.6152L148.727 68.6152C145.367 70.7752 141.335 71.8552 136.631 71.8552C127.223 71.8552 122.519 66.5512 122.519 55.9432V40.7512H116.255V31.3912H122.591V17.4232H133.823V31.3912H146.495V40.7512H133.823V54.8632C133.823 59.3272 135.575 61.5592 139.079 61.5592C140.903 61.5592 143.063 60.9112 145.559 59.6152ZM177.003 27.3592C175.083 27.3592 173.475 26.7352 172.179 25.4872C170.883 24.1912 170.235 22.5832 170.235 20.6632C170.235 18.7432 170.883 17.1592 172.179 15.9112C173.475 14.6152 175.083 13.9672 177.003 13.9672C178.875 13.9672 180.459 14.6152 181.755 15.9112C183.051 17.1592 183.699 18.7432 183.699 20.6632C183.699 22.5832 183.051 24.1912 181.755 25.4872C180.459 26.7352 178.875 27.3592 177.003 27.3592ZM182.547 31.3912V70.8472H171.243V31.3912H182.547ZM202.37 70.8472H191.066V31.3912H202.082V36.8632C203.138 34.9432 204.77 33.3832 206.978 32.1832C209.234 30.9352 211.754 30.3112 214.538 30.3112C218.81 30.3112 222.434 31.7272 225.41 34.5592C228.386 37.3912 229.874 41.4472 229.874 46.7272V70.8472H218.57V49.6792C218.57 46.8472 217.874 44.6392 216.482 43.0552C215.09 41.4712 213.218 40.6792 210.866 40.6792C208.322 40.6792 206.258 41.5432 204.674 43.2712C203.138 44.9512 202.37 47.1832 202.37 49.9672V70.8472ZM265.24 70.8472V29.0872H250.192V17.6392H292.168V29.0872H277.192V70.8472H265.24ZM310.698 71.9272C304.458 71.9272 299.346 69.9352 295.362 65.9512C291.426 61.9672 289.458 57.0232 289.458 51.1192C289.458 45.2152 291.426 40.2952 295.362 36.3592C299.346 32.3272 304.458 30.3112 310.698 30.3112C316.986 30.3112 322.122 32.3272 326.106 36.3592C330.09 40.3432 332.082 45.2632 332.082 51.1192C332.082 56.9272 330.09 61.8712 326.106 65.9512C322.122 69.9352 316.986 71.9272 310.698 71.9272ZM320.778 51.0472C320.778 48.2152 319.794 45.8152 317.826 43.8472C315.858 41.8312 313.482 40.8232 310.698 40.8232C307.914 40.8232 305.538 41.8312 303.57 43.8472C301.65 45.7672 300.69 48.1672 300.69 51.0472C300.69 54.0232 301.65 56.4952 303.57 58.4632C305.538 60.4312 307.914 61.4152 310.698 61.4152C313.482 61.4152 315.858 60.4312 317.826 58.4632C319.794 56.3992 320.778 53.9272 320.778 51.0472ZM356.722 71.8552C350.962 71.8552 346.426 70.2712 343.114 67.1032C339.85 63.9352 338.218 59.5432 338.218 53.9272V31.3912H349.522V53.9992C349.522 56.3032 350.146 58.1272 351.394 59.4712C352.69 60.8152 354.466 61.4872 356.722 61.4872C358.978 61.4872 360.73 60.8152 361.978 59.4712C363.274 58.1272 363.922 56.3032 363.922 53.9992V31.3912H375.226V53.9272C375.226 59.6392 373.594 64.0552 370.33 67.1752C367.066 70.2952 362.53 71.8552 356.722 71.8552ZM402.379 71.7112C396.235 71.7112 391.195 69.7912 387.259 65.9512C383.371 62.0632 381.427 57.0952 381.427 51.0472C381.427 44.9512 383.395 40.0072 387.331 36.2152C391.267 32.3272 396.355 30.3832 402.595 30.3832C406.723 30.3832 410.443 31.3672 413.755 33.3352C417.115 35.3032 419.587 38.0632 421.171 41.6152L412.171 46.4392C409.867 42.6952 406.747 40.8232 402.811 40.8232C399.931 40.8232 397.507 41.8072 395.539 43.7752C393.619 45.6952 392.659 48.1192 392.659 51.0472C392.659 54.0712 393.595 56.5432 395.467 58.4632C397.387 60.3832 399.787 61.3432 402.667 61.3432C404.635 61.3432 406.459 60.8392 408.139 59.8312C409.867 58.7752 411.139 57.4312 411.955 55.7992L421.099 61.1992C419.371 64.4152 416.827 66.9832 413.467 68.9032C410.155 70.7752 406.459 71.7112 402.379 71.7112ZM438.269 70.8472H426.965V16.0552H437.981V36.6472C439.085 34.8232 440.741 33.3112 442.949 32.1112C445.157 30.9112 447.653 30.3112 450.437 30.3112C454.661 30.3112 458.261 31.7272 461.237 34.5592C464.213 37.3912 465.701 41.4472 465.701 46.7272V70.8472H454.397V49.6792C454.397 46.8472 453.701 44.6392 452.309 43.0552C450.965 41.4712 449.117 40.6792 446.765 40.6792C444.221 40.6792 442.157 41.5432 440.573 43.2712C439.037 44.9512 438.269 47.1832 438.269 49.9672V70.8472Z"/>
</mask>
<path d="M22.3223 63.9352L21.2665 65.0008L21.2764 65.0104L22.3223 63.9352ZM22.6103 24.4792L21.5739 23.3948H21.5739L22.6103 24.4792ZM54.6503 19.0072L54.0809 20.3949L54.0886 20.3981L54.0963 20.4011L54.6503 19.0072ZM64.0103 24.9832L65.1345 25.9762L66.0679 24.9195L65.0709 23.9225L64.0103 24.9832ZM56.3783 33.6232L55.3452 34.7107L56.4728 35.7819L57.5025 34.6162L56.3783 33.6232ZM31.1783 32.7592L32.239 33.8199L32.2473 33.8114L31.1783 32.7592ZM31.1063 55.5832L32.1917 54.5479L31.1063 55.5832ZM49.9703 58.8952L50.5126 60.2937L50.52 60.2908L50.5274 60.2879L49.9703 58.8952ZM55.8743 55.2232L56.918 56.3005L57.3743 55.8585V55.2232H55.8743ZM55.8743 49.1032H57.3743V47.6032H55.8743V49.1032ZM42.3383 49.1032H40.8383V50.6032H42.3383V49.1032ZM42.3383 38.8792V37.3792H40.8383V38.8792H42.3383ZM66.6743 38.8792H68.1743V37.3792H66.6743V38.8792ZM66.6743 61.2712L67.7349 62.3318L68.1743 61.8925V61.2712H66.6743ZM42.4103 70.1392C34.6457 70.1392 28.3386 67.6948 23.3682 62.8599L21.2764 65.0104C26.866 70.4475 33.9509 73.1392 42.4103 73.1392V70.1392ZM23.378 62.8696C18.4532 57.99 15.9743 51.8323 15.9743 44.2792H12.9743C12.9743 52.566 15.7274 59.5124 21.2665 65.0007L23.378 62.8696ZM15.9743 44.2792C15.9743 36.6415 18.5406 30.4437 23.6467 25.5635L21.5739 23.3948C15.8319 28.8827 12.9743 35.8848 12.9743 44.2792H15.9743ZM23.6467 25.5635C28.7713 20.6657 35.1113 18.2032 42.7703 18.2032V15.2032C34.3972 15.2032 27.2973 17.9246 21.5739 23.3948L23.6467 25.5635ZM42.7703 18.2032C46.7574 18.2032 50.5234 18.9354 54.0809 20.3949L55.2196 17.6194C51.2892 16.0069 47.1352 15.2032 42.7703 15.2032V18.2032ZM54.0963 20.4011C57.6772 21.8243 60.6171 23.7113 62.9496 26.0438L65.0709 23.9225C62.4115 21.2631 59.1114 19.166 55.2043 17.6132L54.0963 20.4011ZM62.8861 23.9901L55.2541 32.6301L57.5025 34.6162L65.1345 25.9762L62.8861 23.9901ZM57.4114 32.5357C53.2936 28.6238 48.3641 26.6512 42.6983 26.6512V29.6512C47.5924 29.6512 51.783 31.3266 55.3452 34.7107L57.4114 32.5357ZM42.6983 26.6512C37.676 26.6512 33.4393 28.324 30.1093 31.7069L32.2473 33.8114C34.9652 31.0503 38.4086 29.6512 42.6983 29.6512V26.6512ZM30.1176 31.6985C26.7923 35.0238 25.1423 39.2066 25.1423 44.1352H28.1423C28.1423 39.9438 29.5163 36.5425 32.2389 33.8198L30.1176 31.6985ZM25.1423 44.1352C25.1423 49.0129 26.7654 53.2055 30.0209 56.6185L32.1917 54.5479C29.4952 51.7209 28.1423 48.2814 28.1423 44.1352H25.1423ZM30.0209 56.6185C33.3073 60.0639 37.5536 61.7632 42.6263 61.7632V58.7632C38.291 58.7632 34.8573 57.3424 32.1917 54.5479L30.0209 56.6185ZM42.6263 61.7632C45.3542 61.7632 47.9861 61.2733 50.5126 60.2937L49.428 57.4966C47.2504 58.341 44.9864 58.7632 42.6263 58.7632V61.7632ZM50.5274 60.2879C53.0717 59.2702 55.2159 57.9494 56.918 56.3005L54.8306 54.1458C53.4607 55.4729 51.6689 56.6002 49.4132 57.5025L50.5274 60.2879ZM57.3743 55.2232V49.1032H54.3743V55.2232H57.3743ZM55.8743 47.6032H42.3383V50.6032H55.8743V47.6032ZM43.8383 49.1032V38.8792H40.8383V49.1032H43.8383ZM42.3383 40.3792H66.6743V37.3792H42.3383V40.3792ZM65.1743 38.8792V61.2712H68.1743V38.8792H65.1743ZM65.6136 60.2105C58.9657 66.8584 51.2527 70.1392 42.4103 70.1392V73.1392C52.0959 73.1392 60.5589 69.5079 67.7349 62.3318L65.6136 60.2105ZM112.797 54.9352V56.4352H114.129L114.287 55.1125L112.797 54.9352ZM83.781 54.9352V53.4352H81.8188L82.3336 55.3287L83.781 54.9352ZM106.821 58.5352L108.119 57.7831L107.316 56.397L105.985 57.2895L106.821 58.5352ZM111.285 66.2392L112.193 67.4334L113.247 66.6325L112.583 65.4871L111.285 66.2392ZM77.949 65.7352L76.8493 66.7554L76.856 66.7624L77.949 65.7352ZM78.165 36.2872L79.2387 37.3347L79.2453 37.3279L78.165 36.2872ZM107.541 35.7112L108.573 34.6229L108.566 34.6164L107.541 35.7112ZM99.045 41.4712L98.0952 42.6321L98.1036 42.639L98.1122 42.6458L99.045 41.4712ZM87.165 41.4712L86.265 40.2712L86.2569 40.2773L86.2488 40.2835L87.165 41.4712ZM83.709 46.8712L82.2612 46.479L81.7487 48.3712H83.709V46.8712ZM102.285 46.8712V48.3712H104.168L103.747 46.5361L102.285 46.8712ZM111.657 50.1832C111.657 51.2476 111.545 52.7636 111.308 54.7578L114.287 55.1125C114.529 53.0747 114.657 51.4227 114.657 50.1832H111.657ZM112.797 53.4352H83.781V56.4352H112.797V53.4352ZM82.3336 55.3287C83.081 58.0781 84.4887 60.2591 86.6181 61.7311C88.7285 63.1899 91.401 63.8512 94.509 63.8512V60.8512C91.8091 60.8512 89.7896 60.2764 88.324 59.2633C86.8774 58.2633 85.8251 56.7362 85.2285 54.5417L82.3336 55.3287ZM94.509 63.8512C99.2332 63.8512 103.626 62.4846 107.657 59.7808L105.985 57.2895C102.432 59.6737 98.6168 60.8512 94.509 60.8512V63.8512ZM105.523 59.2872L109.987 66.9912L112.583 65.4871L108.119 57.7831L105.523 59.2872ZM110.377 65.0449C105.868 68.4719 100.437 70.2112 94.005 70.2112V73.2112C101.013 73.2112 107.102 71.3025 112.193 67.4334L110.377 65.0449ZM94.005 70.2112C87.3392 70.2112 82.4298 68.3128 79.0421 64.7079L76.856 66.7624C80.9562 71.1255 86.7509 73.2112 94.005 73.2112V70.2112ZM79.0487 64.715C75.6288 61.0286 73.905 56.5053 73.905 51.0472H70.905C70.905 57.2051 72.8773 62.4737 76.8494 66.7553L79.0487 64.715ZM73.905 51.0472C73.905 45.5028 75.6935 40.9685 79.2387 37.3347L77.0914 35.2397C72.9566 39.4778 70.905 44.7835 70.905 51.0472H73.905ZM79.2453 37.3279C82.7135 33.7279 87.3174 31.8832 93.213 31.8832V28.8832C86.6287 28.8832 81.2005 30.9744 77.0848 35.2465L79.2453 37.3279ZM93.213 31.8832C98.637 31.8832 103.033 33.5434 106.516 36.8059L108.566 34.6164C104.465 30.7749 99.309 28.8832 93.213 28.8832V31.8832ZM106.509 36.7994C109.9 40.0169 111.657 44.4178 111.657 50.1832H114.657C114.657 43.7565 112.67 38.5094 108.573 34.623L106.509 36.7994ZM99.9949 40.3102C98.1092 38.7674 95.8171 38.0272 93.213 38.0272V41.0272C95.2169 41.0272 96.8128 41.5829 98.0952 42.6321L99.9949 40.3102ZM93.213 38.0272C90.6075 38.0272 88.2705 38.7671 86.265 40.2712L88.065 42.6712C89.5155 41.5833 91.2106 41.0272 93.213 41.0272V38.0272ZM86.2488 40.2835C84.2774 41.8043 82.9596 43.9004 82.2612 46.479L85.1569 47.2633C85.7065 45.2339 86.6926 43.73 88.0812 42.6588L86.2488 40.2835ZM83.709 48.3712H102.285V45.3712H83.709V48.3712ZM103.747 46.5361C103.154 43.9473 101.912 41.8323 99.9779 40.2965L98.1122 42.6458C99.4422 43.702 100.36 45.1871 100.823 47.2062L103.747 46.5361ZM145.559 59.6152L146.974 59.1171L146.4 57.4881L144.867 58.2839L145.559 59.6152ZM148.727 68.6152L149.538 69.8769L150.535 69.2357L150.142 68.1171L148.727 68.6152ZM122.519 40.7512H124.019V39.2512H122.519V40.7512ZM116.255 40.7512H114.755V42.2512H116.255V40.7512ZM116.255 31.3912V29.8912H114.755V31.3912H116.255ZM122.591 31.3912V32.8912H124.091V31.3912H122.591ZM122.591 17.4232V15.9232H121.091V17.4232H122.591ZM133.823 17.4232H135.323V15.9232H133.823V17.4232ZM133.823 31.3912H132.323V32.8912H133.823V31.3912ZM146.495 31.3912H147.995V29.8912H146.495V31.3912ZM146.495 40.7512V42.2512H147.995V40.7512H146.495ZM133.823 40.7512V39.2512H132.323V40.7512H133.823ZM144.144 60.1132L147.312 69.1132L150.142 68.1171L146.974 59.1171L144.144 60.1132ZM147.916 67.3534C144.838 69.332 141.099 70.3552 136.631 70.3552V73.3552C141.57 73.3552 145.896 72.2184 149.538 69.8769L147.916 67.3534ZM136.631 70.3552C132.208 70.3552 129.151 69.1167 127.169 66.8819C125.157 64.6128 124.019 61.0573 124.019 55.9432H121.019C121.019 61.437 122.233 65.8376 124.924 68.8725C127.647 71.9417 131.646 73.3552 136.631 73.3552V70.3552ZM124.019 55.9432V40.7512H121.019V55.9432H124.019ZM122.519 39.2512H116.255V42.2512H122.519V39.2512ZM117.755 40.7512V31.3912H114.755V40.7512H117.755ZM116.255 32.8912H122.591V29.8912H116.255V32.8912ZM124.091 31.3912V17.4232H121.091V31.3912H124.091ZM122.591 18.9232H133.823V15.9232H122.591V18.9232ZM132.323 17.4232V31.3912H135.323V17.4232H132.323ZM133.823 32.8912H146.495V29.8912H133.823V32.8912ZM144.995 31.3912V40.7512H147.995V31.3912H144.995ZM146.495 39.2512H133.823V42.2512H146.495V39.2512ZM132.323 40.7512V54.8632H135.323V40.7512H132.323ZM132.323 54.8632C132.323 57.2505 132.784 59.3176 133.957 60.8113C135.184 62.3742 136.986 63.0592 139.079 63.0592V60.0592C137.668 60.0592 136.842 59.6281 136.317 58.959C135.737 58.2207 135.323 56.9398 135.323 54.8632H132.323ZM139.079 63.0592C141.239 63.0592 143.645 62.2987 146.25 60.9464L144.867 58.2839C142.48 59.5236 140.566 60.0592 139.079 60.0592V63.0592ZM172.179 25.4872L171.118 26.5478L171.128 26.5578L171.139 26.5676L172.179 25.4872ZM172.179 15.9112L173.219 16.9916L173.23 16.9818L173.24 16.9718L172.179 15.9112ZM181.755 15.9112L180.694 16.9718L180.704 16.9818L180.715 16.9916L181.755 15.9112ZM181.755 25.4872L182.796 26.5676L182.806 26.5578L182.816 26.5478L181.755 25.4872ZM182.547 31.3912H184.047V29.8912H182.547V31.3912ZM182.547 70.8472V72.3472H184.047V70.8472H182.547ZM171.243 70.8472H169.743V72.3472H171.243V70.8472ZM171.243 31.3912V29.8912H169.743V31.3912H171.243ZM177.003 25.8592C175.442 25.8592 174.216 25.3663 173.219 24.4067L171.139 26.5676C172.734 28.1041 174.724 28.8592 177.003 28.8592V25.8592ZM173.24 24.4265C172.24 23.4264 171.735 22.2064 171.735 20.6632H168.735C168.735 22.9599 169.527 24.956 171.118 26.5478L173.24 24.4265ZM171.735 20.6632C171.735 19.1203 172.238 17.9364 173.219 16.9916L171.139 14.8307C169.528 16.3819 168.735 18.366 168.735 20.6632H171.735ZM173.24 16.9718C174.24 15.9717 175.46 15.4672 177.003 15.4672V12.4672C174.706 12.4672 172.71 13.2586 171.118 14.8505L173.24 16.9718ZM177.003 15.4672C178.487 15.4672 179.686 15.9638 180.694 16.9718L182.816 14.8505C181.232 13.2665 179.263 12.4672 177.003 12.4672V15.4672ZM180.715 16.9916C181.696 17.9364 182.199 19.1203 182.199 20.6632H185.199C185.199 18.366 184.406 16.3819 182.795 14.8307L180.715 16.9916ZM182.199 20.6632C182.199 22.2064 181.695 23.4264 180.694 24.4265L182.816 26.5478C184.408 24.956 185.199 22.9599 185.199 20.6632H182.199ZM180.715 24.4067C179.71 25.3737 178.504 25.8592 177.003 25.8592V28.8592C179.246 28.8592 181.208 28.0966 182.796 26.5676L180.715 24.4067ZM181.047 31.3912V70.8472H184.047V31.3912H181.047ZM182.547 69.3472H171.243V72.3472H182.547V69.3472ZM172.743 70.8472V31.3912H169.743V70.8472H172.743ZM171.243 32.8912H182.547V29.8912H171.243V32.8912ZM202.37 70.8472V72.3472H203.87V70.8472H202.37ZM191.066 70.8472H189.566V72.3472H191.066V70.8472ZM191.066 31.3912V29.8912H189.566V31.3912H191.066ZM202.082 31.3912H203.582V29.8912H202.082V31.3912ZM202.082 36.8632H200.582L203.396 37.586L202.082 36.8632ZM206.978 32.1832L207.694 33.5011L207.704 33.4957L206.978 32.1832ZM225.41 34.5592L224.376 35.6458V35.6458L225.41 34.5592ZM229.874 70.8472V72.3472H231.374V70.8472H229.874ZM218.57 70.8472H217.07V72.3472H218.57V70.8472ZM216.482 43.0552L215.355 44.0453V44.0453L216.482 43.0552ZM204.674 43.2712L203.568 42.2576L203.567 42.259L204.674 43.2712ZM202.37 69.3472H191.066V72.3472H202.37V69.3472ZM192.566 70.8472V31.3912H189.566V70.8472H192.566ZM191.066 32.8912H202.082V29.8912H191.066V32.8912ZM200.582 31.3912V36.8632H203.582V31.3912H200.582ZM203.396 37.586C204.295 35.9529 205.701 34.5847 207.694 33.5011L206.262 30.8652C203.84 32.1817 201.982 33.9335 200.768 36.1403L203.396 37.586ZM207.704 33.4957C209.72 32.3804 211.987 31.8112 214.538 31.8112V28.8112C211.521 28.8112 208.748 29.4899 206.252 30.8706L207.704 33.4957ZM214.538 31.8112C218.442 31.8112 221.691 33.0907 224.376 35.6458L226.444 33.4725C223.177 30.3637 219.178 28.8112 214.538 28.8112V31.8112ZM224.376 35.6458C226.976 38.1195 228.374 41.7343 228.374 46.7272H231.374C231.374 41.16 229.797 36.6629 226.444 33.4725L224.376 35.6458ZM228.374 46.7272V70.8472H231.374V46.7272H228.374ZM229.874 69.3472H218.57V72.3472H229.874V69.3472ZM220.07 70.8472V49.6792H217.07V70.8472H220.07ZM220.07 49.6792C220.07 46.6091 219.313 44.0047 217.609 42.065L215.355 44.0453C216.435 45.2736 217.07 47.0852 217.07 49.6792H220.07ZM217.609 42.065C215.897 40.1174 213.594 39.1792 210.866 39.1792V42.1792C212.842 42.1792 214.283 42.825 215.355 44.0453L217.609 42.065ZM210.866 39.1792C207.942 39.1792 205.462 40.1913 203.568 42.2576L205.78 44.2848C207.054 42.8951 208.702 42.1792 210.866 42.1792V39.1792ZM203.567 42.259C201.725 44.274 200.87 46.8962 200.87 49.9672H203.87C203.87 47.4701 204.551 45.6283 205.781 44.2833L203.567 42.259ZM200.87 49.9672V70.8472H203.87V49.9672H200.87ZM265.24 70.8472H263.74V72.3472H265.24V70.8472ZM265.24 29.0872H266.74V27.5872H265.24V29.0872ZM250.192 29.0872H248.692V30.5872H250.192V29.0872ZM250.192 17.6392V16.1392H248.692V17.6392H250.192ZM292.168 17.6392H293.668V16.1392H292.168V17.6392ZM292.168 29.0872V30.5872H293.668V29.0872H292.168ZM277.192 29.0872V27.5872H275.692V29.0872H277.192ZM277.192 70.8472V72.3472H278.692V70.8472H277.192ZM266.74 70.8472V29.0872H263.74V70.8472H266.74ZM265.24 27.5872H250.192V30.5872H265.24V27.5872ZM251.692 29.0872V17.6392H248.692V29.0872H251.692ZM250.192 19.1392H292.168V16.1392H250.192V19.1392ZM290.668 17.6392V29.0872H293.668V17.6392H290.668ZM292.168 27.5872H277.192V30.5872H292.168V27.5872ZM275.692 29.0872V70.8472H278.692V29.0872H275.692ZM277.192 69.3472H265.24V72.3472H277.192V69.3472ZM295.362 65.9512L294.295 67.0054L294.301 67.0118L295.362 65.9512ZM295.362 36.3592L296.423 37.4198L296.429 37.4135L295.362 36.3592ZM326.106 36.3592L325.039 37.4135L325.045 37.4198L326.106 36.3592ZM326.106 65.9512L327.167 67.0118L327.173 67.0055L327.179 66.9991L326.106 65.9512ZM317.826 43.8472L316.753 44.895L316.759 44.9014L316.765 44.9078L317.826 43.8472ZM303.57 43.8472L304.631 44.9078L304.637 44.9014L304.643 44.895L303.57 43.8472ZM303.57 58.4632L302.496 59.5107L302.503 59.5173L302.509 59.5238L303.57 58.4632ZM317.826 58.4632L318.887 59.5238L318.899 59.5112L318.912 59.4983L317.826 58.4632ZM310.698 70.4272C304.809 70.4272 300.094 68.5617 296.423 64.8905L294.301 67.0118C298.598 71.3086 304.107 73.4272 310.698 73.4272V70.4272ZM296.429 64.897C292.787 61.2102 290.958 56.6522 290.958 51.1192H287.958C287.958 57.3941 290.065 62.7242 294.295 67.0054L296.429 64.897ZM290.958 51.1192C290.958 45.5862 292.786 41.0561 296.423 37.4198L294.301 35.2985C290.066 39.5342 287.958 44.8441 287.958 51.1192H290.958ZM296.429 37.4135C300.101 33.6968 304.814 31.8112 310.698 31.8112V28.8112C304.102 28.8112 298.591 30.9575 294.295 35.3049L296.429 37.4135ZM310.698 31.8112C316.633 31.8112 321.369 33.6992 325.039 37.4135L327.173 35.3049C322.875 30.9552 317.339 28.8112 310.698 28.8112V31.8112ZM325.045 37.4198C328.736 41.1104 330.582 45.6435 330.582 51.1192H333.582C333.582 44.8828 331.444 39.5759 327.167 35.2985L325.045 37.4198ZM330.582 51.1192C330.582 56.5436 328.738 61.1092 325.033 64.9032L327.179 66.9991C331.442 62.6332 333.582 57.3107 333.582 51.1192H330.582ZM325.045 64.8905C321.376 68.5594 316.639 70.4272 310.698 70.4272V73.4272C317.333 73.4272 322.868 71.3109 327.167 67.0118L325.045 64.8905ZM322.278 51.0472C322.278 47.8252 321.141 45.0413 318.887 42.7865L316.765 44.9078C318.447 46.589 319.278 48.6052 319.278 51.0472H322.278ZM318.899 42.7994C316.653 40.4981 313.892 39.3232 310.698 39.3232V42.3232C313.073 42.3232 315.063 43.1642 316.753 44.895L318.899 42.7994ZM310.698 39.3232C307.505 39.3232 304.743 40.4981 302.497 42.7994L304.643 44.895C306.333 43.1642 308.324 42.3232 310.698 42.3232V39.3232ZM302.509 42.7865C300.29 45.0062 299.19 47.7961 299.19 51.0472H302.19C302.19 48.5382 303.01 46.5281 304.631 44.9078L302.509 42.7865ZM299.19 51.0472C299.19 54.3791 300.279 57.2381 302.496 59.5107L304.644 57.4157C303.021 55.7522 302.19 53.6672 302.19 51.0472H299.19ZM302.509 59.5238C304.759 61.7732 307.516 62.9152 310.698 62.9152V59.9152C308.312 59.9152 306.317 59.0891 304.631 57.4025L302.509 59.5238ZM310.698 62.9152C313.88 62.9152 316.637 61.7732 318.887 59.5238L316.765 57.4025C315.079 59.0891 313.084 59.9152 310.698 59.9152V62.9152ZM318.912 59.4983C321.149 57.1522 322.278 54.3084 322.278 51.0472H319.278C319.278 53.5459 318.44 55.6461 316.74 57.4281L318.912 59.4983ZM343.114 67.1032L342.07 68.1796L342.078 68.1871L343.114 67.1032ZM338.218 31.3912V29.8912H336.718V31.3912H338.218ZM349.522 31.3912H351.022V29.8912H349.522V31.3912ZM351.394 59.4712L350.295 60.4918L350.305 60.5022L350.315 60.5124L351.394 59.4712ZM361.978 59.4712L360.899 58.43L360.889 58.4401L360.879 58.4505L361.978 59.4712ZM363.922 31.3912V29.8912H362.422V31.3912H363.922ZM375.226 31.3912H376.726V29.8912H375.226V31.3912ZM370.33 67.1752L369.294 66.0909L370.33 67.1752ZM356.722 70.3552C351.245 70.3552 347.117 68.8561 344.151 66.0192L342.078 68.1871C345.736 71.6862 350.68 73.3552 356.722 73.3552V70.3552ZM344.159 66.0268C341.252 63.2049 339.718 59.239 339.718 53.9272H336.718C336.718 59.8473 338.449 64.6655 342.07 68.1795L344.159 66.0268ZM339.718 53.9272V31.3912H336.718V53.9272H339.718ZM338.218 32.8912H349.522V29.8912H338.218V32.8912ZM348.022 31.3912V53.9992H351.022V31.3912H348.022ZM348.022 53.9992C348.022 56.5806 348.728 58.8042 350.295 60.4918L352.494 58.4505C351.565 57.4501 351.022 56.0257 351.022 53.9992H348.022ZM350.315 60.5124C351.951 62.2092 354.15 62.9872 356.722 62.9872V59.9872C354.783 59.9872 353.43 59.4211 352.474 58.43L350.315 60.5124ZM356.722 62.9872C359.292 62.9872 361.482 62.2096 363.078 60.4918L360.879 58.4505C359.978 59.4207 358.664 59.9872 356.722 59.9872V62.9872ZM363.058 60.5124C364.684 58.8266 365.422 56.5957 365.422 53.9992H362.422C362.422 56.0107 361.865 57.4277 360.899 58.43L363.058 60.5124ZM365.422 53.9992V31.3912H362.422V53.9992H365.422ZM363.922 32.8912H375.226V29.8912H363.922V32.8912ZM373.726 31.3912V53.9272H376.726V31.3912H373.726ZM373.726 53.9272C373.726 59.3446 372.188 63.3246 369.294 66.0909L371.367 68.2595C375.001 64.7858 376.726 59.9337 376.726 53.9272H373.726ZM369.294 66.0909C366.382 68.874 362.259 70.3552 356.722 70.3552V73.3552C362.802 73.3552 367.75 71.7163 371.367 68.2595L369.294 66.0909ZM387.259 65.9512L386.198 67.0118L386.205 67.0184L386.211 67.0248L387.259 65.9512ZM387.331 36.2152L388.371 37.2954L388.378 37.2889L388.385 37.2823L387.331 36.2152ZM413.755 33.3352L412.989 34.6247L412.997 34.6295L413.755 33.3352ZM421.171 41.6152L421.879 42.9372L423.109 42.2782L422.541 41.0042L421.171 41.6152ZM412.171 46.4392L410.893 47.2253L411.634 48.4288L412.879 47.7612L412.171 46.4392ZM395.539 43.7752L396.599 44.8358L395.539 43.7752ZM395.467 58.4632L394.393 59.5103L394.399 59.5171L394.406 59.5238L395.467 58.4632ZM408.139 59.8312L408.911 61.1174L408.921 61.1111L408.139 59.8312ZM411.955 55.7992L412.718 54.5076L411.332 53.6896L410.613 55.1283L411.955 55.7992ZM421.099 61.1992L422.42 61.9091L423.102 60.6401L421.862 59.9076L421.099 61.1992ZM413.467 68.9032L414.205 70.209L414.211 70.2055L413.467 68.9032ZM402.379 70.2112C396.576 70.2112 391.928 68.4111 388.306 64.8775L386.211 67.0248C390.461 71.1712 395.893 73.2112 402.379 73.2112V70.2112ZM388.319 64.8905C384.742 61.3133 382.927 56.741 382.927 51.0472H379.927C379.927 57.4493 381.999 62.8131 386.198 67.0118L388.319 64.8905ZM382.927 51.0472C382.927 45.3069 384.764 40.7707 388.371 37.2954L386.29 35.1349C382.025 39.2437 379.927 44.5954 379.927 51.0472H382.927ZM388.385 37.2823C392.003 33.708 396.694 31.8832 402.595 31.8832V28.8832C396.015 28.8832 390.53 30.9463 386.277 35.148L388.385 37.2823ZM402.595 31.8832C406.473 31.8832 409.925 32.8043 412.989 34.6247L414.521 32.0456C410.961 29.93 406.972 28.8832 402.595 28.8832V31.8832ZM412.997 34.6295C416.087 36.4394 418.345 38.9606 419.801 42.2261L422.541 41.0042C420.829 37.1658 418.143 34.167 414.513 32.0408L412.997 34.6295ZM420.462 40.2931L411.462 45.1171L412.879 47.7612L421.879 42.9372L420.462 40.2931ZM413.448 45.653C410.909 41.5272 407.336 39.3232 402.811 39.3232V42.3232C406.157 42.3232 408.824 43.8631 410.893 47.2253L413.448 45.653ZM402.811 39.3232C399.548 39.3232 396.738 40.4545 394.478 42.7145L396.599 44.8358C398.275 43.1599 400.313 42.3232 402.811 42.3232V39.3232ZM394.478 42.7145C392.253 44.9393 391.159 47.7558 391.159 51.0472H394.159C394.159 48.4826 394.984 46.4511 396.599 44.8358L394.478 42.7145ZM391.159 51.0472C391.159 54.4081 392.212 57.2736 394.393 59.5103L396.541 57.416C394.978 55.8128 394.159 53.7342 394.159 51.0472H391.159ZM394.406 59.5238C396.626 61.7435 399.416 62.8432 402.667 62.8432V59.8432C400.158 59.8432 398.148 59.0228 396.527 57.4025L394.406 59.5238ZM402.667 62.8432C404.905 62.8432 406.996 62.2659 408.911 61.1174L407.367 58.5449C405.921 59.4124 404.364 59.8432 402.667 59.8432V62.8432ZM408.921 61.1111C410.862 59.9251 412.341 58.3805 413.296 56.47L410.613 55.1283C409.936 56.4818 408.872 57.6252 407.357 58.5512L408.921 61.1111ZM411.192 57.0908L420.336 62.4908L421.862 59.9076L412.718 54.5076L411.192 57.0908ZM419.777 60.4892C418.191 63.4425 415.854 65.8115 412.723 67.6008L414.211 70.2055C417.8 68.1548 420.551 65.3879 422.42 61.9091L419.777 60.4892ZM412.729 67.5973C409.658 69.3329 406.219 70.2112 402.379 70.2112V73.2112C406.698 73.2112 410.651 72.2175 414.205 70.209L412.729 67.5973ZM438.269 70.8472V72.3472H439.769V70.8472H438.269ZM426.965 70.8472H425.465V72.3472H426.965V70.8472ZM426.965 16.0552V14.5552H425.465V16.0552H426.965ZM437.981 16.0552H439.481V14.5552H437.981V16.0552ZM437.981 36.6472H436.481V42.0223L439.264 37.4239L437.981 36.6472ZM442.949 32.1112L442.232 30.7932L442.949 32.1112ZM461.237 34.5592L460.202 35.6458V35.6458L461.237 34.5592ZM465.701 70.8472V72.3472H467.201V70.8472H465.701ZM454.397 70.8472H452.897V72.3472H454.397V70.8472ZM452.309 43.0552L451.165 44.0256L451.173 44.0356L451.182 44.0453L452.309 43.0552ZM440.573 43.2712L439.467 42.2576L439.465 42.259L440.573 43.2712ZM438.269 69.3472H426.965V72.3472H438.269V69.3472ZM428.465 70.8472V16.0552H425.465V70.8472H428.465ZM426.965 17.5552H437.981V14.5552H426.965V17.5552ZM436.481 16.0552V36.6472H439.481V16.0552H436.481ZM439.264 37.4239C440.207 35.8651 441.648 34.525 443.665 33.4291L442.232 30.7932C439.833 32.0973 437.962 33.7813 436.697 35.8705L439.264 37.4239ZM443.665 33.4291C445.63 32.3611 447.875 31.8112 450.437 31.8112V28.8112C447.43 28.8112 444.683 29.4613 442.232 30.7932L443.665 33.4291ZM450.437 31.8112C454.288 31.8112 457.514 33.0874 460.202 35.6458L462.271 33.4725C459.007 30.367 455.033 28.8112 450.437 28.8112V31.8112ZM460.202 35.6458C462.802 38.1195 464.201 41.7343 464.201 46.7272H467.201C467.201 41.16 465.623 36.6629 462.271 33.4725L460.202 35.6458ZM464.201 46.7272V70.8472H467.201V46.7272H464.201ZM465.701 69.3472H454.397V72.3472H465.701V69.3472ZM455.897 70.8472V49.6792H452.897V70.8472H455.897ZM455.897 49.6792C455.897 46.6091 455.14 44.0047 453.435 42.065L451.182 44.0453C452.261 45.2736 452.897 47.0852 452.897 49.6792H455.897ZM453.452 42.0847C451.784 40.1181 449.492 39.1792 446.765 39.1792V42.1792C448.741 42.1792 450.145 42.8243 451.165 44.0256L453.452 42.0847ZM446.765 39.1792C443.84 39.1792 441.361 40.1913 439.467 42.2576L441.678 44.2848C442.952 42.8951 444.601 42.1792 446.765 42.1792V39.1792ZM439.465 42.259C437.623 44.274 436.769 46.8962 436.769 49.9672H439.769C439.769 47.4701 440.45 45.6283 441.68 44.2833L439.465 42.259ZM436.769 49.9672V70.8472H439.769V49.9672H436.769Z" fill="#1EE0E1" mask="url(#path-1-outside-1_0_252)"/>
</g>
<path d="M39.0587 68.0503C30.9467 68.0503 24.2507 65.4823 18.9707 60.3463C13.7387 55.1623 11.1227 48.6103 11.1227 40.6903C11.1227 32.6743 13.8347 26.0743 19.2587 20.8903C24.6827 15.7063 31.4027 13.1143 39.4187 13.1143C43.5947 13.1143 47.5547 13.8823 51.2987 15.4183C55.0427 16.9063 58.1627 18.8983 60.6587 21.3943L53.0267 30.0343C49.1867 26.3863 44.6267 24.5623 39.3467 24.5623C34.6907 24.5623 30.8507 26.0983 27.8267 29.1703C24.8027 32.1943 23.2907 35.9863 23.2907 40.5463C23.2907 45.0583 24.7787 48.8743 27.7547 51.9943C30.7307 55.1143 34.5707 56.6743 39.2747 56.6743C41.8187 56.6743 44.2667 56.2183 46.6187 55.3063C49.0187 54.3463 50.9867 53.1223 52.5227 51.6343V45.5143H38.9867V35.2903H63.3227V57.6823C56.4107 64.5943 48.3227 68.0503 39.0587 68.0503ZM109.805 46.5943C109.805 47.7463 109.685 49.3303 109.445 51.3463H80.4295C81.7735 56.2903 85.3495 58.7623 91.1575 58.7623C95.5735 58.7623 99.6775 57.4903 103.469 54.9463L107.933 62.6503C103.133 66.2983 97.3735 68.1223 90.6535 68.1223C83.6935 68.1223 78.3415 66.1303 74.5975 62.1463C70.9015 58.1623 69.0535 53.2663 69.0535 47.4583C69.0535 41.5543 70.9735 36.6343 74.8135 32.6983C78.6055 28.7623 83.6215 26.7943 89.8615 26.7943C95.6215 26.7943 100.397 28.5703 104.189 32.1223C107.933 35.6743 109.805 40.4983 109.805 46.5943ZM95.6935 37.8823C94.1095 36.5863 92.1655 35.9383 89.8615 35.9383C87.5575 35.9383 85.5415 36.5863 83.8135 37.8823C82.1335 39.1783 80.9815 40.9783 80.3575 43.2823H98.9335C98.4055 40.9783 97.3255 39.1783 95.6935 37.8823ZM142.207 56.0263L145.375 65.0263C142.015 67.1863 137.983 68.2663 133.279 68.2663C123.871 68.2663 119.167 62.9623 119.167 52.3543V37.1623H112.903V27.8023H119.239V13.8343H130.471V27.8023H143.143V37.1623H130.471V51.2743C130.471 55.7383 132.223 57.9703 135.727 57.9703C137.551 57.9703 139.711 57.3223 142.207 56.0263ZM173.651 23.7703C171.731 23.7703 170.123 23.1463 168.827 21.8983C167.531 20.6023 166.883 18.9943 166.883 17.0743C166.883 15.1543 167.531 13.5703 168.827 12.3223C170.123 11.0263 171.731 10.3783 173.651 10.3783C175.523 10.3783 177.107 11.0263 178.403 12.3223C179.699 13.5703 180.347 15.1543 180.347 17.0743C180.347 18.9943 179.699 20.6023 178.403 21.8983C177.107 23.1463 175.523 23.7703 173.651 23.7703ZM179.195 27.8023V67.2583H167.891V27.8023H179.195ZM199.019 67.2583H187.715V27.8023H198.731V33.2743C199.787 31.3543 201.419 29.7943 203.627 28.5943C205.883 27.3463 208.403 26.7223 211.187 26.7223C215.459 26.7223 219.083 28.1383 222.059 30.9703C225.035 33.8023 226.523 37.8583 226.523 43.1383V67.2583H215.219V46.0903C215.219 43.2583 214.523 41.0503 213.131 39.4663C211.739 37.8823 209.867 37.0903 207.515 37.0903C204.971 37.0903 202.907 37.9543 201.323 39.6823C199.787 41.3623 199.019 43.5943 199.019 46.3783V67.2583ZM261.888 67.2583V25.4983H246.84V14.0503H288.816V25.4983H273.84V67.2583H261.888ZM307.346 68.3383C301.106 68.3383 295.994 66.3463 292.01 62.3623C288.074 58.3783 286.106 53.4343 286.106 47.5303C286.106 41.6263 288.074 36.7063 292.01 32.7703C295.994 28.7383 301.106 26.7223 307.346 26.7223C313.634 26.7223 318.77 28.7383 322.754 32.7703C326.738 36.7543 328.73 41.6743 328.73 47.5303C328.73 53.3383 326.738 58.2823 322.754 62.3623C318.77 66.3463 313.634 68.3383 307.346 68.3383ZM317.426 47.4583C317.426 44.6263 316.442 42.2263 314.474 40.2583C312.506 38.2423 310.13 37.2343 307.346 37.2343C304.562 37.2343 302.186 38.2423 300.218 40.2583C298.298 42.1783 297.338 44.5783 297.338 47.4583C297.338 50.4343 298.298 52.9063 300.218 54.8743C302.186 56.8423 304.562 57.8263 307.346 57.8263C310.13 57.8263 312.506 56.8423 314.474 54.8743C316.442 52.8103 317.426 50.3383 317.426 47.4583ZM353.371 68.2663C347.611 68.2663 343.075 66.6823 339.763 63.5143C336.499 60.3463 334.867 55.9543 334.867 50.3383V27.8023H346.171V50.4103C346.171 52.7143 346.795 54.5383 348.043 55.8823C349.339 57.2263 351.115 57.8983 353.371 57.8983C355.627 57.8983 357.379 57.2263 358.627 55.8823C359.923 54.5383 360.571 52.7143 360.571 50.4103V27.8023H371.875V50.3383C371.875 56.0503 370.243 60.4663 366.979 63.5863C363.715 66.7063 359.179 68.2663 353.371 68.2663ZM399.027 68.1223C392.883 68.1223 387.843 66.2023 383.907 62.3623C380.019 58.4743 378.075 53.5063 378.075 47.4583C378.075 41.3623 380.043 36.4183 383.979 32.6263C387.915 28.7383 393.003 26.7943 399.243 26.7943C403.371 26.7943 407.091 27.7783 410.403 29.7463C413.763 31.7143 416.235 34.4743 417.819 38.0263L408.819 42.8503C406.515 39.1063 403.395 37.2343 399.459 37.2343C396.579 37.2343 394.155 38.2183 392.187 40.1863C390.267 42.1063 389.307 44.5303 389.307 47.4583C389.307 50.4823 390.243 52.9543 392.115 54.8743C394.035 56.7943 396.435 57.7543 399.315 57.7543C401.283 57.7543 403.107 57.2503 404.787 56.2423C406.515 55.1863 407.787 53.8423 408.603 52.2103L417.747 57.6103C416.019 60.8263 413.475 63.3943 410.115 65.3143C406.803 67.1863 403.107 68.1223 399.027 68.1223ZM434.917 67.2583H423.613V12.4663H434.629V33.0583C435.733 31.2343 437.389 29.7223 439.597 28.5223C441.805 27.3223 444.301 26.7223 447.085 26.7223C451.309 26.7223 454.909 28.1383 457.885 30.9703C460.861 33.8023 462.349 37.8583 462.349 43.1383V67.2583H451.045V46.0903C451.045 43.2583 450.349 41.0503 448.957 39.4663C447.613 37.8823 445.765 37.0903 443.413 37.0903C440.869 37.0903 438.805 37.9543 437.221 39.6823C435.685 41.3623 434.917 43.5943 434.917 46.3783V67.2583Z" fill="white"/>
<defs>
<filter id="filter0_d_0_252" x="0.974289" y="0.467285" width="486.226" height="92.96" filterUnits="userSpaceOnUse" color-interpolation-filters="sRGB">
<feFlood flood-opacity="0" result="BackgroundImageFix"/>
<feColorMatrix in="SourceAlpha" type="matrix" values="0 0 0 0 0 0 0 0 0 0 0 0 0 0 0 0 0 0 127 0" result="hardAlpha"/>
<feOffset dx="4" dy="4"/>
<feGaussianBlur stdDeviation="8"/>
<feColorMatrix type="matrix" values="0 0 0 0 0.117647 0 0 0 0 0.878431 0 0 0 0 0.882353 0 0 0 1 0"/>
<feBlend mode="normal" in2="BackgroundImageFix" result="effect1_dropShadow_0_252"/>
<feBlend mode="normal" in="SourceGraphic" in2="effect1_dropShadow_0_252" result="shape"/>
</filter>
</defs>
</svg>
